<?xml version="1.0" standalone="no"?>
<!DOCTYPE svg PUBLIC "-//W3C//DTD SVG 20010904//EN"
 "http://www.w3.org/TR/2001/REC-SVG-20010904/DTD/svg10.dtd">
<svg version="1.0" xmlns="http://www.w3.org/2000/svg"
 width="192.000000pt" height="192.000000pt" viewBox="0 0 192.000000 192.000000"
 preserveAspectRatio="xMidYMid meet">
<metadata>
Created by potrace 1.14, written by Peter Selinger 2001-2017
</metadata>
<g transform="translate(0.000000,192.000000) scale(0.100000,-0.100000)"
fill="#000000" stroke="none">
<path d="M955 1763 l-360 -3 160 -160 159 -159 24 22 c17 16 36 22 69 22 38 0
49 -5 74 -33 37 -41 39 -89 5 -129 l-25 -29 347 -347 347 -348 8 573 c4 315 5
578 3 585 -4 10 -55 12 -228 11 -123 -2 -385 -4 -583 -5z"/>
<path d="M160 779 c0 -212 -3 -441 -7 -507 l-6 -122 514 0 514 0 -110 110
-110 110 -227 0 -227 0 5 28 c3 15 8 47 12 72 l7 45 55 7 c30 3 85 6 123 7 47
1 67 5 67 14 0 7 -137 149 -305 317 l-305 304 0 -385z"/>
</g>
</svg>
